<svg xmlns="http://www.w3.org/2000/svg" fill="none" viewBox="0 0 880 888">
  <defs />
  <path fill="#fff" fill-rule="evenodd"
    d="M609.9 15.2C801.7 56.5 880.5 183 880 449c-.4 218.3-69 351.5-207.7 403.5-139.4 52.2-385 45.8-501.4-13.1-67-34-125.7-106-150.5-184.7C2.3 597-.4 568.6 0 439c.5-126 3.7-158.5 20.3-208.3 45.6-136.8 127.4-199 296-225.1C384.4-5 540 0 610 15.2z"
    clip-rule="evenodd" />
  <path fill="#F50059"
    d="M181 484.8a28.3 28.3 0 0128.4-28.2H554a28.3 28.3 0 0128.4 28.2v5.6a28.3 28.3 0 01-28.4 28.1H209.4a28.3 28.3 0 01-28.4-28.1v-5.6z" />
  <path fill="#00BA76"
    d="M181 566.6a28.3 28.3 0 0128.4-28.1H610a28.3 28.3 0 0128.4 28.1v5.6a28.3 28.3 0 01-28.4 28.2H209.4a28.3 28.3 0 01-28.4-28.2v-5.6z" />
  <path fill="#F5B000"
    d="M181 400.4a28.4 28.4 0 0128.4-28.4h461.2a28.4 28.4 0 0128.4 28.4v5.7a28.4 28.4 0 01-28.4 28.5H209.4A28.4 28.4 0 01181 406v-5.7z" />
  <path fill="#00C8F6"
    d="M181 316.1a28.3 28.3 0 0128.4-28.1h399.3a28.3 28.3 0 0128.4 28.1v5.7a28.3 28.3 0 01-28.4 28.1H209.4a28.3 28.3 0 01-28.4-28.1V316z" />
</svg>